# xmcd
#
# Track frame offsets: 
#        150
#        24625
#        44129
#        63823
#        81569
#        83896
#        100338
#        123273
#        147357
#        161920
#        170792
#        207001
#        232618
#        246042
#        269692
#
# Disc length: 3834 seconds
#
# Revision: 1
# Processed by: cddbd v1.5.2PL0 Copyright (c) Steve Scherf et al.
# Submitted via: ExactAudioCopy v0.99pb4
#
DISCID=d50ef80f
DTITLE=Kashmir - No Balance Palace
DYEAR=2005
DGENRE=Rock
TTITLE0=Kalifornia
TTITLE1=Jewel Drop
TTITLE2=The Cynic
TTITLE3=Ophelia
TTITLE4=Diana Ross
TTITLE5=The Curse Of Being A Girl
TTITLE6=She's Made Of Chalk
TTITLE7=Ether
TTITLE8=Snowman
TTITLE9=Black Building
TTITLE10=No Balance Palace
TTITLE11=Ding A Ling
TTITLE12=Snowman (Organic Draft)
TTITLE13=The Dusk Hour (Sidestep Walk)
TTITLE14=Supergirl (Demonstrations Skizze)
EXTD=YEAR: 2006
EXTT0=
EXTT1=
EXTT2=
EXTT3=
EXTT4=
EXTT5=
EXTT6=
EXTT7=
EXTT8=
EXTT9=
EXTT10=
EXTT11=
EXTT12=
EXTT13=
EXTT14=
PLAYORDER=
